<svg width="24" height="24" viewBox="0 0 24 24" fill="none" xmlns="http://www.w3.org/2000/svg">
<circle cx="12" cy="12" r="12" fill="#ECB12F"/>
<path d="M20.5714 9.46877H18.983C18.4792 8.01508 17.5555 6.75797 16.3381 5.86879C15.1206 4.97961 13.6684 4.50163 12.1796 4.5H6.4178V9.46877H4.5V11.0666H6.4178V12.9334H4.5V14.5312H6.4178V19.5H12.1796C13.6684 19.4984 15.1206 19.0204 16.3381 18.1312C17.5555 17.242 18.4792 15.9849 18.983 14.5312H20.5714V12.9334H19.3509C19.4266 12.3136 19.4266 11.6864 19.3509 11.0666H20.5714V9.46877ZM7.9594 6.10132H12.1796C13.255 6.10213 14.3083 6.4188 15.2176 7.01472C16.1268 7.61064 16.8549 8.46146 17.3177 9.46877H7.95439L7.9594 6.10132ZM12.1796 17.8987H7.9594V14.5312H17.3227C16.8596 15.5393 16.1307 16.3907 15.2204 16.9867C14.3102 17.5826 13.2559 17.8989 12.1796 17.8987ZM17.8644 12C17.8642 12.3126 17.8402 12.6247 17.7925 12.9334H7.9594V11.0666H17.7959C17.8435 11.3753 17.8676 11.6874 17.8678 12H17.8644Z" fill="white"/>
</svg>
