<svg width="24" height="24" viewBox="0 0 24 24" fill="none" xmlns="http://www.w3.org/2000/svg">
<path d="M22.68 12C23.409 12 24.0075 11.4072 23.9275 10.6826C23.6994 8.61779 22.9381 6.63938 21.7082 4.94658C20.2187 2.89641 18.1183 1.37042 15.7082 0.587322C13.2981 -0.195774 10.7019 -0.195774 8.2918 0.587322C5.88167 1.37042 3.78133 2.89641 2.2918 4.94658C0.802259 6.99675 -2.21542e-07 9.46585 0 12C2.21543e-07 14.5342 0.80226 17.0033 2.2918 19.0534C3.78133 21.1036 5.88168 22.6296 8.2918 23.4127C10.2818 24.0593 12.3987 24.172 14.4329 23.7508C15.1468 23.603 15.5256 22.8506 15.3003 22.1573C15.075 21.4639 14.3305 21.0945 13.6124 21.2201C12.1139 21.4821 10.567 21.3761 9.1076 20.9019C7.22771 20.2911 5.58944 19.1008 4.4276 17.5017C3.26576 15.9025 2.64 13.9766 2.64 12C2.64 10.0234 3.26576 8.09746 4.4276 6.49833C5.58944 4.8992 7.22771 3.70893 9.1076 3.09811C10.9875 2.4873 13.0125 2.4873 14.8924 3.09811C16.7723 3.70893 18.4106 4.8992 19.5724 6.49833C20.4744 7.73978 21.0532 9.17817 21.2671 10.6843C21.3696 11.4061 21.951 12 22.68 12Z" fill="white"/>
</svg>
