<svg width="12" height="16" viewBox="0 0 12 16" fill="none" xmlns="http://www.w3.org/2000/svg">
<path opacity="0.3" d="M6 0C3.50714 0 1.5 2.039 1.5 4.57143V5.33333C0.675 5.33333 0 6.01905 0 6.85714V14.4762C0 15.3143 0.675 16 1.5 16H10.5C11.325 16 12 15.3143 12 14.4762V6.85714C12 6.01905 11.325 5.33333 10.5 5.33333V4.57143C10.5 2.039 8.49286 0 6 0ZM6 1.52381C7.70714 1.52381 9 2.83719 9 4.57143V5.33333H3V4.57143C3 2.83719 4.29286 1.52381 6 1.52381ZM6 9.14286C6.825 9.14286 7.5 9.82857 7.5 10.6667C7.5 11.5048 6.825 12.1905 6 12.1905C5.175 12.1905 4.5 11.5048 4.5 10.6667C4.5 9.82857 5.175 9.14286 6 9.14286Z" fill="white"/>
</svg>
