<svg width="79" height="79" viewBox="0 0 79 79" fill="none" xmlns="http://www.w3.org/2000/svg">
<path fill-rule="evenodd" clip-rule="evenodd" d="M32.8352 39.1716C32.8352 31.748 38.5324 25.6315 45.8663 24.8107C44.4659 24.395 42.9806 24.1716 41.4422 24.1716C33.0085 24.1716 26.1716 30.8873 26.1716 39.1716C26.1716 47.4558 33.0085 54.1716 41.4422 54.1716C42.9805 54.1716 44.4657 53.9481 45.866 53.5325C38.5322 52.7116 32.8352 46.5951 32.8352 39.1716ZM48.3324 37.3636L46.9952 34.5352L45.6579 37.3636L42.5062 37.7388L44.8315 39.8621L44.2208 42.9224L46.9952 41.4063L49.7695 42.9224L49.1589 39.8621L51.4841 37.7388L48.3324 37.3636Z" fill="white"/>
<mask id="path-2-inside-1_153_19" fill="white">
<path fill-rule="evenodd" clip-rule="evenodd" d="M49.5268 15.1716C49.2616 15.1716 49.0072 15.0662 48.8197 14.8787L39.8785 5.93755C39.488 5.54702 38.8549 5.54702 38.4643 5.93755L29.5232 14.8787C29.3357 15.0662 29.0813 15.1716 28.8161 15.1716H16.1714C15.6192 15.1716 15.1714 15.6193 15.1714 16.1716V28.8162C15.1714 29.0814 15.0661 29.3358 14.8785 29.5233L5.93742 38.4645C5.5469 38.855 5.5469 39.4881 5.93742 39.8787L14.8785 48.8198C15.0661 49.0073 15.1714 49.2617 15.1714 49.5269V62.1716C15.1714 62.7239 15.6192 63.1716 16.1714 63.1716H28.8161C29.0813 63.1716 29.3357 63.2769 29.5232 63.4645L38.4643 72.4056C38.8549 72.7961 39.488 72.7961 39.8785 72.4056L48.8197 63.4645C49.0072 63.2769 49.2616 63.1716 49.5268 63.1716H62.1714C62.7237 63.1716 63.1714 62.7239 63.1714 62.1716V49.5269C63.1714 49.2617 63.2768 49.0073 63.4643 48.8198L72.4055 39.8787C72.796 39.4881 72.796 38.855 72.4055 38.4645L63.4643 29.5233C63.2768 29.3358 63.1714 29.0814 63.1714 28.8162V16.1716C63.1714 15.6193 62.7237 15.1716 62.1714 15.1716H49.5268Z"/>
</mask>
<path d="M63.4643 29.5233L62.7572 30.2304L63.4643 29.5233ZM72.4055 39.8787L71.6984 39.1716L72.4055 39.8787ZM72.4055 38.4645L73.1126 37.7574L72.4055 38.4645ZM63.4643 48.8198L62.7572 48.1127L63.4643 48.8198ZM48.8197 63.4645L48.1126 62.7574L48.8197 63.4645ZM38.4643 72.4056L39.1714 71.6985L38.4643 72.4056ZM39.8785 72.4056L40.5857 73.1127L39.8785 72.4056ZM29.5232 63.4645L30.2303 62.7574L29.5232 63.4645ZM14.8785 48.8198L14.1714 49.5269L14.8785 48.8198ZM5.93742 38.4645L5.23032 37.7574L5.93742 38.4645ZM5.93742 39.8787L5.23032 40.5858L5.93742 39.8787ZM14.8785 29.5233L14.1714 28.8162L14.8785 29.5233ZM29.5232 14.8787L30.2303 15.5858L29.5232 14.8787ZM48.8197 14.8787L49.5268 14.1716L48.8197 14.8787ZM39.8785 5.93755L40.5857 5.23044L39.8785 5.93755ZM38.4643 5.93755L39.1714 6.64465L38.4643 5.93755ZM39.1714 6.64465L48.1126 15.5858L49.5268 14.1716L40.5857 5.23044L39.1714 6.64465ZM30.2303 15.5858L39.1714 6.64465L37.7572 5.23044L28.8161 14.1716L30.2303 15.5858ZM16.1714 16.1716H28.8161V14.1716H16.1714V16.1716ZM16.1714 28.8162V16.1716H14.1714V28.8162H16.1714ZM6.64453 39.1716L15.5857 30.2304L14.1714 28.8162L5.23032 37.7574L6.64453 39.1716ZM15.5857 48.1127L6.64453 39.1716L5.23032 40.5858L14.1714 49.5269L15.5857 48.1127ZM16.1714 62.1716V49.5269H14.1714V62.1716H16.1714ZM28.8161 62.1716H16.1714V64.1716H28.8161V62.1716ZM39.1714 71.6985L30.2303 62.7574L28.8161 64.1716L37.7572 73.1127L39.1714 71.6985ZM48.1126 62.7574L39.1714 71.6985L40.5857 73.1127L49.5268 64.1716L48.1126 62.7574ZM62.1714 62.1716H49.5268V64.1716H62.1714V62.1716ZM62.1714 49.5269V62.1716H64.1714V49.5269H62.1714ZM71.6984 39.1716L62.7572 48.1127L64.1714 49.5269L73.1126 40.5858L71.6984 39.1716ZM62.7572 30.2304L71.6984 39.1716L73.1126 37.7574L64.1714 28.8162L62.7572 30.2304ZM62.1714 16.1716V28.8162H64.1714V16.1716H62.1714ZM49.5268 16.1716H62.1714V14.1716H49.5268V16.1716ZM64.1714 16.1716C64.1714 15.067 63.276 14.1716 62.1714 14.1716V16.1716H64.1714ZM64.1714 28.8162H62.1714C62.1714 29.3467 62.3822 29.8554 62.7572 30.2304L64.1714 28.8162ZM73.1126 40.5858C73.8936 39.8047 73.8936 38.5384 73.1126 37.7574L71.6984 39.1716L73.1126 40.5858ZM64.1714 49.5269L62.7572 48.1127C62.3822 48.4878 62.1714 48.9965 62.1714 49.5269H64.1714ZM62.1714 64.1716C63.276 64.1716 64.1714 63.2761 64.1714 62.1716H62.1714V64.1716ZM49.5268 64.1716V62.1716C48.9963 62.1716 48.4876 62.3823 48.1126 62.7574L49.5268 64.1716ZM37.7572 73.1127C38.5383 73.8937 39.8046 73.8937 40.5857 73.1127L39.1714 71.6985L37.7572 73.1127ZM28.8161 64.1716L30.2303 62.7574C29.8553 62.3823 29.3465 62.1716 28.8161 62.1716V64.1716ZM14.1714 62.1716C14.1714 63.2761 15.0669 64.1716 16.1714 64.1716V62.1716H16.1714H14.1714ZM14.1714 49.5269V49.5269H16.1714C16.1714 48.9965 15.9607 48.4878 15.5857 48.1127L14.1714 49.5269ZM5.23032 37.7574C4.44927 38.5384 4.44927 39.8047 5.23032 40.5858L6.64453 39.1716H6.64453L5.23032 37.7574ZM14.1714 28.8162H14.1714L15.5857 30.2304C15.9607 29.8554 16.1714 29.3467 16.1714 28.8162H14.1714ZM16.1714 14.1716C15.0669 14.1716 14.1714 15.067 14.1714 16.1716H16.1714V16.1716V14.1716ZM28.8161 14.1716V16.1716C29.3465 16.1716 29.8552 15.9609 30.2303 15.5858L28.8161 14.1716ZM48.1126 15.5858C48.4876 15.9609 48.9964 16.1716 49.5268 16.1716V14.1716L48.1126 15.5858ZM40.5857 5.23044C39.8046 4.44939 38.5383 4.44939 37.7572 5.23044L39.1714 6.64465L39.1714 6.64465L40.5857 5.23044Z" fill="#FFB72A" mask="url(#path-2-inside-1_153_19)"/>
<mask id="path-4-inside-2_153_19" fill="white">
<path fill-rule="evenodd" clip-rule="evenodd" d="M51.7157 10.8873C51.1853 10.8873 50.6766 10.6766 50.3015 10.3015L40.5858 0.585786C39.8047 -0.195262 38.5384 -0.195262 37.7574 0.585787L28.0416 10.3015C27.6665 10.6766 27.1578 10.8873 26.6274 10.8873H12.8873C11.7827 10.8873 10.8873 11.7827 10.8873 12.8873V26.6274C10.8873 27.1578 10.6766 27.6666 10.3015 28.0416L0.585787 37.7574C-0.195262 38.5384 -0.195262 39.8047 0.585786 40.5858L10.3015 50.3015C10.6766 50.6766 10.8873 51.1853 10.8873 51.7157V65.4558C10.8873 66.5604 11.7827 67.4558 12.8873 67.4558H26.6274C27.1579 67.4558 27.6666 67.6666 28.0416 68.0416L37.7574 77.7573C38.5384 78.5384 39.8047 78.5384 40.5858 77.7573L50.3015 68.0416C50.6766 67.6666 51.1853 67.4558 51.7157 67.4558H65.4558C66.5604 67.4558 67.4558 66.5604 67.4558 65.4558V51.7157C67.4558 51.1853 67.6665 50.6766 68.0416 50.3015L77.7573 40.5858C78.5384 39.8047 78.5384 38.5384 77.7573 37.7574L68.0416 28.0416C67.6665 27.6666 67.4558 27.1578 67.4558 26.6274V12.8873C67.4558 11.7827 66.5604 10.8873 65.4558 10.8873H51.7157Z"/>
</mask>
<path d="M50.3015 68.0416L49.5944 67.3345L50.3015 68.0416ZM37.7574 77.7573L37.0502 78.4645L37.7574 77.7573ZM40.5858 77.7573L41.2929 78.4645L40.5858 77.7573ZM10.3015 50.3015L11.0086 49.5944L10.3015 50.3015ZM0.585787 37.7574L-0.12132 37.0502L0.585787 37.7574ZM0.585786 40.5858L1.29289 39.8787L0.585786 40.5858ZM10.3015 28.0416L9.59441 27.3345L10.3015 28.0416ZM28.0416 10.3015L28.7487 11.0086L28.0416 10.3015ZM50.3015 10.3015L49.5944 11.0086L50.3015 10.3015ZM40.5858 0.585786L39.8787 1.29289L40.5858 0.585786ZM37.7574 0.585787L38.4645 1.29289L37.7574 0.585787ZM39.8787 1.29289L49.5944 11.0086L51.0086 9.59441L41.2929 -0.121321L39.8787 1.29289ZM28.7487 11.0086L38.4645 1.29289L37.0502 -0.12132L27.3345 9.59441L28.7487 11.0086ZM12.8873 11.8873H26.6274V9.88731H12.8873V11.8873ZM11.8873 26.6274V12.8873H9.8873V26.6274H11.8873ZM1.29289 38.4645L11.0086 28.7487L9.59441 27.3345L-0.12132 37.0502L1.29289 38.4645ZM11.0086 49.5944L1.29289 39.8787L-0.121321 41.2929L9.59441 51.0086L11.0086 49.5944ZM11.8873 65.4558V51.7157H9.8873V65.4558H11.8873ZM26.6274 66.4558H12.8873V68.4558H26.6274V66.4558ZM38.4645 77.0502L28.7487 67.3345L27.3345 68.7487L37.0502 78.4645L38.4645 77.0502ZM49.5944 67.3345L39.8787 77.0502L41.2929 78.4645L51.0086 68.7487L49.5944 67.3345ZM65.4558 66.4558H51.7157V68.4558H65.4558V66.4558ZM66.4558 51.7157V65.4558H68.4558V51.7157H66.4558ZM77.0502 39.8787L67.3345 49.5944L68.7487 51.0086L78.4645 41.2929L77.0502 39.8787ZM67.3345 28.7487L77.0502 38.4645L78.4645 37.0502L68.7487 27.3345L67.3345 28.7487ZM66.4558 12.8873V26.6274H68.4558V12.8873H66.4558ZM51.7157 11.8873H65.4558V9.88731H51.7157V11.8873ZM68.4558 12.8873C68.4558 11.2305 67.1127 9.88731 65.4558 9.88731V11.8873C66.0081 11.8873 66.4558 12.335 66.4558 12.8873H68.4558ZM68.7487 27.3345C68.5612 27.147 68.4558 26.8926 68.4558 26.6274H66.4558C66.4558 27.4231 66.7719 28.1861 67.3345 28.7487L68.7487 27.3345ZM78.4645 41.2929C79.636 40.1213 79.636 38.2218 78.4645 37.0502L77.0502 38.4645C77.4408 38.855 77.4408 39.4881 77.0502 39.8787L78.4645 41.2929ZM68.4558 51.7157C68.4558 51.4505 68.5612 51.1962 68.7487 51.0086L67.3345 49.5944C66.7719 50.157 66.4558 50.9201 66.4558 51.7157H68.4558ZM65.4558 68.4558C67.1127 68.4558 68.4558 67.1127 68.4558 65.4558H66.4558C66.4558 66.0081 66.0081 66.4558 65.4558 66.4558V68.4558ZM51.0086 68.7487C51.1961 68.5612 51.4505 68.4558 51.7157 68.4558V66.4558C50.9201 66.4558 50.157 66.7719 49.5944 67.3345L51.0086 68.7487ZM37.0502 78.4645C38.2218 79.636 40.1213 79.636 41.2929 78.4645L39.8787 77.0502C39.4881 77.4408 38.855 77.4408 38.4645 77.0502L37.0502 78.4645ZM26.6274 68.4558C26.8926 68.4558 27.147 68.5612 27.3345 68.7487L28.7487 67.3345C28.1861 66.7719 27.4231 66.4558 26.6274 66.4558V68.4558ZM9.8873 65.4558C9.8873 67.1127 11.2304 68.4558 12.8873 68.4558V66.4558C12.335 66.4558 11.8873 66.0081 11.8873 65.4558H9.8873ZM9.59441 51.0086C9.78194 51.1962 9.8873 51.4505 9.8873 51.7157H11.8873C11.8873 50.9201 11.5712 50.157 11.0086 49.5944L9.59441 51.0086ZM-0.12132 37.0502C-1.29289 38.2218 -1.29289 40.1213 -0.121321 41.2929L1.29289 39.8787C0.902369 39.4881 0.902369 38.855 1.29289 38.4645L-0.12132 37.0502ZM9.8873 26.6274C9.8873 26.8926 9.78194 27.147 9.59441 27.3345L11.0086 28.7487C11.5712 28.1861 11.8873 27.4231 11.8873 26.6274H9.8873ZM12.8873 9.88731C11.2304 9.88731 9.8873 11.2305 9.8873 12.8873H11.8873C11.8873 12.335 12.335 11.8873 12.8873 11.8873V9.88731ZM27.3345 9.59441C27.147 9.78195 26.8926 9.88731 26.6274 9.88731V11.8873C27.4231 11.8873 28.1861 11.5712 28.7487 11.0086L27.3345 9.59441ZM49.5944 11.0086C50.157 11.5712 50.9201 11.8873 51.7157 11.8873V9.88731C51.4505 9.88731 51.1962 9.78195 51.0086 9.59441L49.5944 11.0086ZM41.2929 -0.121321C40.1213 -1.29289 38.2218 -1.29289 37.0502 -0.12132L38.4645 1.29289C38.855 0.902369 39.4882 0.902369 39.8787 1.29289L41.2929 -0.121321Z" fill="#FFB72A" mask="url(#path-4-inside-2_153_19)"/>
</svg>
