<svg width="50" height="46" viewBox="0 0 50 46" fill="none" xmlns="http://www.w3.org/2000/svg">
<path d="M46.6263 1L27.8752 14.8744L31.3622 6.69778L46.6263 1Z" fill="#E17726" stroke="#E17726" stroke-width="0.25" stroke-linecap="round" stroke-linejoin="round"/>
<path d="M3.3728 1L21.9569 15.0039L18.637 6.69776L3.3728 1Z" fill="#E27625" stroke="#E27625" stroke-width="0.25" stroke-linecap="round" stroke-linejoin="round"/>
<path d="M39.8736 33.1704L34.8845 40.7921L45.5676 43.7335L48.6279 33.337L39.8736 33.1704Z" fill="#E27625" stroke="#E27625" stroke-width="0.25" stroke-linecap="round" stroke-linejoin="round"/>
<path d="M1.39038 33.337L4.43207 43.7335L15.0966 40.7921L10.126 33.1704L1.39038 33.337Z" fill="#E27625" stroke="#E27625" stroke-width="0.25" stroke-linecap="round" stroke-linejoin="round"/>
<path d="M14.52 20.2935L11.5525 24.7703L22.1242 25.2513L21.7719 13.8743L14.52 20.2935Z" fill="#E27625" stroke="#E27625" stroke-width="0.25" stroke-linecap="round" stroke-linejoin="round"/>
<path d="M35.4787 20.2936L28.1156 13.7449L27.8745 25.2514L38.4462 24.7704L35.4787 20.2936Z" fill="#E27625" stroke="#E27625" stroke-width="0.25" stroke-linecap="round" stroke-linejoin="round"/>
<path d="M15.095 40.7911L21.4936 37.7017L15.9853 33.4099L15.095 40.7911Z" fill="#E27625" stroke="#E27625" stroke-width="0.25" stroke-linecap="round" stroke-linejoin="round"/>
<path d="M28.5059 37.7017L34.8859 40.7911L34.0142 33.4099L28.5059 37.7017Z" fill="#E27625" stroke="#E27625" stroke-width="0.25" stroke-linecap="round" stroke-linejoin="round"/>
<path d="M34.8859 40.7924L28.5059 37.7031L29.0251 41.8469L28.9694 43.6044L34.8859 40.7924Z" fill="#D5BFB2" stroke="#D5BFB2" stroke-width="0.25" stroke-linecap="round" stroke-linejoin="round"/>
<path d="M15.095 40.7924L21.03 43.6044L20.9929 41.8469L21.4936 37.7031L15.095 40.7924Z" fill="#D5BFB2" stroke="#D5BFB2" stroke-width="0.25" stroke-linecap="round" stroke-linejoin="round"/>
<path d="M21.1424 30.6716L15.8379 29.1177L19.5844 27.3972L21.1424 30.6716Z" fill="#233447" stroke="#233447" stroke-width="0.25" stroke-linecap="round" stroke-linejoin="round"/>
<path d="M28.8579 30.6716L30.4159 27.3972L34.1809 29.1177L28.8579 30.6716Z" fill="#233447" stroke="#233447" stroke-width="0.25" stroke-linecap="round" stroke-linejoin="round"/>
<path d="M15.0943 40.7921L16.0217 33.1704L10.1238 33.337L15.0943 40.7921Z" fill="#CC6228" stroke="#CC6228" stroke-width="0.25" stroke-linecap="round" stroke-linejoin="round"/>
<path d="M33.9766 33.1704L34.8854 40.7921L39.8745 33.337L33.9766 33.1704Z" fill="#CC6228" stroke="#CC6228" stroke-width="0.25" stroke-linecap="round" stroke-linejoin="round"/>
<path d="M38.4462 24.7712L27.8745 25.2522L28.8575 30.6726L30.4155 27.3981L34.1805 29.1186L38.4462 24.7712Z" fill="#CC6228" stroke="#CC6228" stroke-width="0.25" stroke-linecap="round" stroke-linejoin="round"/>
<path d="M15.8368 29.1186L19.5833 27.3981L21.1413 30.6726L22.1242 25.2522L11.5525 24.7712L15.8368 29.1186Z" fill="#CC6228" stroke="#CC6228" stroke-width="0.25" stroke-linecap="round" stroke-linejoin="round"/>
<path d="M11.5525 24.7712L15.9852 33.4104L15.8368 29.1186L11.5525 24.7712Z" fill="#E27525" stroke="#E27525" stroke-width="0.25" stroke-linecap="round" stroke-linejoin="round"/>
<path d="M34.1811 29.1186L34.0142 33.4104L38.4469 24.7712L34.1811 29.1186Z" fill="#E27525" stroke="#E27525" stroke-width="0.25" stroke-linecap="round" stroke-linejoin="round"/>
<path d="M22.1249 25.2517L21.1418 30.6721L22.3845 37.0727L22.6627 28.6371L22.1249 25.2517Z" fill="#E27525" stroke="#E27525" stroke-width="0.25" stroke-linecap="round" stroke-linejoin="round"/>
<path d="M27.8749 25.2517L27.3555 28.6187L27.6152 37.0727L28.8578 30.6721L27.8749 25.2517Z" fill="#E27525" stroke="#E27525" stroke-width="0.25" stroke-linecap="round" stroke-linejoin="round"/>
<path d="M28.8579 30.6723L27.6152 37.0729L28.5055 37.7019L34.014 33.4101L34.1809 29.1183L28.8579 30.6723Z" fill="#F5841F" stroke="#F5841F" stroke-width="0.25" stroke-linecap="round" stroke-linejoin="round"/>
<path d="M15.8379 29.1183L15.9864 33.4101L21.4947 37.7019L22.385 37.0729L21.1424 30.6723L15.8379 29.1183Z" fill="#F5841F" stroke="#F5841F" stroke-width="0.25" stroke-linecap="round" stroke-linejoin="round"/>
<path d="M28.9681 43.6026L29.0236 41.8451L28.5415 41.4381H21.4566L20.9929 41.8451L21.03 43.6026L15.095 40.7906L17.1722 42.4926L21.3824 45.397H28.5971L32.8258 42.4926L34.8845 40.7906L28.9681 43.6026Z" fill="#C0AC9D" stroke="#C0AC9D" stroke-width="0.25" stroke-linecap="round" stroke-linejoin="round"/>
<path d="M28.5056 37.7032L27.6153 37.0743H22.3851L21.495 37.7032L20.9941 41.8472L21.4578 41.4401H28.5427L29.025 41.8472L28.5056 37.7032Z" fill="#161616" stroke="#161616" stroke-width="0.25" stroke-linecap="round" stroke-linejoin="round"/>
<path d="M47.4236 15.7808L49.0002 8.12221L46.6261 1L28.5059 14.412L35.4794 20.2947L45.3278 23.1621L47.4979 20.6278L46.5521 19.9432L48.0542 18.5744L46.9044 17.6863L48.4067 16.5394L47.4236 15.7808Z" fill="#763E1A" stroke="#763E1A" stroke-width="0.25" stroke-linecap="round" stroke-linejoin="round"/>
<path d="M1 8.12221L2.59504 15.7808L1.57496 16.5394L3.0958 17.6863L1.9459 18.5744L3.44819 19.9432L2.5023 20.6278L4.6723 23.1621L14.5208 20.2947L21.4943 14.412L3.37401 1L1 8.12221Z" fill="#763E1A" stroke="#763E1A" stroke-width="0.25" stroke-linecap="round" stroke-linejoin="round"/>
<path d="M45.3278 23.162L35.4794 20.2947L38.4469 24.7715L34.0142 33.4106L39.875 33.3366H48.6291L45.3278 23.162Z" fill="#F5841F" stroke="#F5841F" stroke-width="0.25" stroke-linecap="round" stroke-linejoin="round"/>
<path d="M14.5216 20.2947L4.67318 23.162L1.39038 33.3366H10.126L15.9868 33.4106L11.5541 24.7715L14.5216 20.2947Z" fill="#F5841F" stroke="#F5841F" stroke-width="0.25" stroke-linecap="round" stroke-linejoin="round"/>
<path d="M27.8751 25.2536L28.5057 14.413L31.3618 6.69885H18.6387L21.4948 14.413L22.1254 25.2536L22.3666 28.6574L22.3851 37.0746H27.6154L27.6339 28.6574L27.8751 25.2536Z" fill="#F5841F" stroke="#F5841F" stroke-width="0.25" stroke-linecap="round" stroke-linejoin="round"/>
</svg>
