<svg width="24" height="24" viewBox="0 0 24 24" fill="none" xmlns="http://www.w3.org/2000/svg">
<circle cx="12" cy="12" r="12" fill="#2775CA"/>
<path fill-rule="evenodd" clip-rule="evenodd" d="M14.5348 4.11197V2.29999C16.6737 2.86145 18.5663 4.11564 19.9169 5.86656C21.2675 7.61749 22 9.76651 22 11.9778C22 14.1891 21.2675 16.3381 19.9169 18.0891C18.5663 19.84 16.6737 21.0942 14.5348 21.6556V19.8437C16.1984 19.3065 17.6488 18.2557 18.6776 16.8424C19.7064 15.4291 20.2606 13.7259 20.2606 11.9778C20.2606 10.2297 19.7064 8.52657 18.6776 7.11325C17.6488 5.69992 16.1984 4.64915 14.5348 4.11197ZM3.73866 11.9778C3.73871 10.247 4.28228 8.56001 5.29265 7.1548C6.30303 5.74959 7.72919 4.69717 9.36985 4.14606V2.32839C7.25311 2.90577 5.38496 4.16317 4.0532 5.90684C2.72145 7.65051 2 9.78371 2 11.9778C2 14.1719 2.72145 16.3051 4.0532 18.0487C5.38496 19.7924 7.25311 21.0498 9.36985 21.6272V19.8095C7.72919 19.2584 6.30303 18.206 5.29265 16.8008C4.28228 15.3956 3.73871 13.7085 3.73866 11.9778ZM15.7099 13.8504C15.7326 12.2924 14.1272 11.1969 12.0556 10.9808C10.8387 10.8576 10.1773 10.5108 10.1773 9.70714C10.1773 8.93951 10.9582 8.369 11.8281 8.41638C13.4089 8.50546 13.6382 9.48348 13.6382 10.0805C13.6382 10.0805 15.3592 10.0995 15.3592 10.0805C15.3592 8.62677 14.5215 7.34739 12.8099 6.9702V5.2492H11.1041V6.90955C9.33571 7.19007 8.3558 8.6154 8.33874 9.82844C8.3141 11.4338 9.65603 12.3266 11.8831 12.6488C13.2667 12.8383 13.8827 13.3671 13.8695 14.0684C13.8581 14.8266 13.3634 15.5525 11.9381 15.5525C10.5848 15.5525 10.0294 14.7166 10.0294 13.8353H8.17194C8.17194 15.416 9.01729 16.576 11.0946 16.8452V18.5017H12.8005V16.8622C15.2114 16.5571 15.6947 14.7451 15.7099 13.8504Z" fill="white"/>
</svg>
