<svg width="24" height="24" viewBox="0 0 24 24" fill="none" xmlns="http://www.w3.org/2000/svg">
<circle cx="12" cy="12" r="12" fill="#50AF95"/>
<path fill-rule="evenodd" clip-rule="evenodd" d="M13.4365 12.4772C13.3562 12.483 12.9418 12.5072 12.0173 12.5072C11.2819 12.5072 10.7599 12.4857 10.5767 12.4772C7.73499 12.355 5.6139 11.8717 5.6139 11.293C5.6139 10.7143 7.73499 10.2316 10.5767 10.1075V11.9958C10.7625 12.0089 11.2946 12.0396 12.03 12.0396C12.9124 12.0396 13.3542 12.0036 13.4338 11.9964V10.1088C16.2695 10.2323 18.3859 10.7156 18.3859 11.293C18.3859 11.8704 16.2701 12.3537 13.4338 12.4765L13.4365 12.4772ZM13.4365 9.91352V8.2238H17.3939V5.64709H6.61929V8.2238H10.576V9.91287C7.35997 10.0572 4.94141 10.6797 4.94141 11.4256C4.94141 12.1715 7.35997 12.7933 10.576 12.9383V18.353H13.4358V12.9363C16.6445 12.792 19.0591 12.1702 19.0591 11.4249C19.0591 10.6797 16.6465 10.0579 13.4358 9.91287L13.4365 9.91352Z" fill="white"/>
</svg>
