<svg width="60" height="37" viewBox="0 0 60 37" fill="none" xmlns="http://www.w3.org/2000/svg">
<path d="M12.2832 7.18503C22.068 -2.39501 37.9321 -2.39501 47.7168 7.18503L48.8944 8.33801C49.3837 8.81701 49.3837 9.59363 48.8944 10.0726L44.8661 14.0167C44.6214 14.2562 44.2248 14.2562 43.9802 14.0167L42.3597 12.4301C35.5336 5.74681 24.4664 5.74681 17.6404 12.4301L15.9049 14.1292C15.6603 14.3687 15.2637 14.3687 15.0191 14.1292L10.9907 10.1851C10.5015 9.70615 10.5015 8.92953 10.9907 8.45053L12.2832 7.18503ZM56.0478 15.3418L59.6331 18.8521C60.1223 19.3311 60.1223 20.1077 59.6331 20.5867L43.467 36.4149C42.9777 36.8939 42.1845 36.8939 41.6953 36.4149L41.6953 36.4149L30.2216 25.1812C30.0993 25.0614 29.901 25.0614 29.7787 25.1812C29.7786 25.1812 29.7786 25.1812 29.7786 25.1812L18.3052 36.4149C17.8159 36.8939 17.0227 36.8939 16.5335 36.415C16.5335 36.4149 16.5335 36.4149 16.5335 36.4149L0.366926 20.5865C-0.122309 20.1075 -0.122309 19.3309 0.366926 18.8519L3.95218 15.3416C4.44141 14.8626 5.23462 14.8626 5.72385 15.3416L17.1977 26.5755C17.32 26.6953 17.5184 26.6953 17.6407 26.5755C17.6407 26.5755 17.6407 26.5755 17.6407 26.5755L29.114 15.3416C29.6032 14.8626 30.3964 14.8626 30.8857 15.3416C30.8857 15.3416 30.8857 15.3416 30.8857 15.3416L42.3596 26.5755C42.4819 26.6953 42.6802 26.6953 42.8025 26.5755L54.2762 15.3418C54.7654 14.8628 55.5586 14.8628 56.0478 15.3418Z" fill="#3B99FC"/>
</svg>
