<svg width="26" height="26" viewBox="0 0 26 26" fill="none" xmlns="http://www.w3.org/2000/svg">
<path fill-rule="evenodd" clip-rule="evenodd" d="M16.8076 3.8076L13 0L9.1924 3.8076H3.8076V9.1924L-4.35977e-06 13L3.8076 16.8076V22.1924H9.19238L13 26L16.8076 22.1924H22.1924V16.8076L26 13L22.1924 9.19239V3.8076H16.8076Z" fill="#FFB72A"/>
<path fill-rule="evenodd" clip-rule="evenodd" d="M10.3565 13C10.3565 9.77884 12.8661 7.12484 16.0966 6.76865C15.4798 6.58829 14.8256 6.49133 14.1479 6.49133C10.4328 6.49133 7.42114 9.40536 7.42114 13C7.42114 16.5946 10.4328 19.5087 14.1479 19.5087C14.8256 19.5087 15.4798 19.4117 16.0967 19.2313C12.8661 18.8751 10.3565 16.2211 10.3565 13ZM17.1831 12.2155L16.594 10.9882L16.0049 12.2155L14.6166 12.3783L15.6409 13.2996L15.3719 14.6275L16.594 13.9697L17.8161 14.6275L17.5471 13.2996L18.5714 12.3783L17.1831 12.2155Z" fill="white"/>
</svg>
